<svg xmlns="http://www.w3.org/2000/svg" width="25" height="24" viewBox="0 0 25 24" fill="none">
    <path d="M22.2011 12.0001C22.1981 14.383 21.3238 16.6826 19.7429 18.4657C18.162 20.2488 15.9837 21.3922 13.6183 21.6807C13.5656 21.6867 13.5123 21.6814 13.4618 21.6653C13.4113 21.6491 13.3649 21.6224 13.3254 21.587C13.286 21.5516 13.2546 21.5082 13.2331 21.4597C13.2117 21.4112 13.2008 21.3587 13.2011 21.3057V14.2501H15.4511C15.5539 14.2503 15.6557 14.2294 15.7501 14.1886C15.8445 14.1479 15.9295 14.0882 15.9998 14.0132C16.0702 13.9382 16.1243 13.8495 16.159 13.7527C16.1936 13.6559 16.2079 13.553 16.2011 13.4504C16.1846 13.2576 16.0956 13.0781 15.9521 12.9482C15.8086 12.8183 15.6212 12.7475 15.4277 12.7501H13.2011V10.5001C13.2011 10.1023 13.3592 9.72074 13.6405 9.43944C13.9218 9.15813 14.3033 9.0001 14.7011 9.0001H16.2011C16.3039 9.00032 16.4057 8.97941 16.5001 8.93865C16.5945 8.89789 16.6795 8.83816 16.7498 8.76316C16.8202 8.68817 16.8743 8.59951 16.909 8.5027C16.9436 8.4059 16.9579 8.303 16.9511 8.20041C16.9345 8.00722 16.8453 7.82752 16.7014 7.69755C16.5575 7.56757 16.3697 7.49701 16.1758 7.5001H14.7011C13.9055 7.5001 13.1424 7.81617 12.5798 8.37878C12.0172 8.94139 11.7011 9.70445 11.7011 10.5001V12.7501H9.45113C9.34831 12.7499 9.24655 12.7708 9.15216 12.8115C9.05777 12.8523 8.97276 12.912 8.90243 12.987C8.83209 13.062 8.77793 13.1507 8.7433 13.2475C8.70867 13.3443 8.69432 13.4472 8.70113 13.5498C8.71772 13.743 8.80696 13.9227 8.95085 14.0527C9.09474 14.1826 9.28257 14.2532 9.47644 14.2501H11.7011V21.3076C11.7015 21.3605 11.6906 21.4129 11.6692 21.4613C11.6478 21.5097 11.6165 21.5531 11.5771 21.5885C11.5378 21.6239 11.4915 21.6506 11.4411 21.6668C11.3907 21.683 11.3375 21.6884 11.2849 21.6826C8.85615 21.3868 6.62697 20.19 5.03857 18.329C3.45018 16.4681 2.61833 14.0786 2.70769 11.6335C2.89519 6.57104 6.99582 2.45541 12.0621 2.25854C13.3737 2.20773 14.6821 2.42199 15.9091 2.8885C17.136 3.35502 18.2562 4.0642 19.2028 4.97363C20.1493 5.88306 20.9027 6.97405 21.4179 8.18136C21.9331 9.38866 22.1995 10.6875 22.2011 12.0001Z" fill="rgb(66, 72, 84)"/>
</svg>