<svg xmlns="http://www.w3.org/2000/svg" width="25" height="24" viewBox="0 0 25 24" fill="none">
  <path d="M12.4512 2.25C10.5228 2.25 8.63775 2.82183 7.03437 3.89317C5.43099 4.96451 4.18131 6.48726 3.44335 8.26884C2.7054 10.0504 2.51231 12.0108 2.88852 13.9021C3.26473 15.7934 4.19332 17.5307 5.55689 18.8943C6.92045 20.2579 8.65773 21.1865 10.549 21.5627C12.4404 21.9389 14.4008 21.7458 16.1823 21.0078C17.9639 20.2699 19.4867 19.0202 20.558 17.4168C21.6293 15.8134 22.2012 13.9284 22.2012 12C22.2012 9.41414 21.1739 6.93419 19.3455 5.10571C17.517 3.27723 15.037 2.25 12.4512 2.25ZM12.4512 19.5C11.2355 19.4999 10.0381 19.2042 8.96202 18.6385C7.88597 18.0729 6.96356 17.2541 6.27423 16.2527C5.5849 15.2514 5.14932 14.0975 5.005 12.8904C4.86068 11.6833 5.01194 10.4592 5.44577 9.32357C5.8796 8.18793 6.58298 7.17476 7.49533 6.37134C8.40769 5.56791 9.50167 4.99831 10.6831 4.71159C11.8644 4.42486 13.0978 4.42961 14.277 4.72543C15.4561 5.02124 16.5457 5.59926 17.4518 6.40969C17.5964 6.54329 17.6826 6.72837 17.6919 6.925C17.7012 7.12163 17.6329 7.31403 17.5016 7.4607C17.3703 7.60737 17.1866 7.69655 16.9901 7.70899C16.7937 7.72142 16.6002 7.65613 16.4515 7.52719C15.4516 6.63282 14.1808 6.09936 12.8421 6.01202C11.5034 5.92468 10.174 6.2885 9.0664 7.04536C7.95876 7.80222 7.13671 8.90845 6.73158 10.1874C6.32645 11.4663 6.36161 12.844 6.83145 14.1006C7.30128 15.3572 8.17868 16.4201 9.32349 17.1194C10.4683 17.8188 11.8145 18.1144 13.147 17.9588C14.4795 17.8033 15.7214 17.2057 16.6744 16.2615C17.6274 15.3173 18.2365 14.081 18.4043 12.75H12.4512C12.2523 12.75 12.0615 12.671 11.9208 12.5303C11.7802 12.3897 11.7012 12.1989 11.7012 12C11.7012 11.8011 11.7802 11.6103 11.9208 11.4697C12.0615 11.329 12.2523 11.25 12.4512 11.25H19.2012C19.4001 11.25 19.5909 11.329 19.7315 11.4697C19.8722 11.6103 19.9512 11.8011 19.9512 12C19.9489 13.9884 19.1581 15.8948 17.752 17.3008C16.346 18.7069 14.4396 19.4978 12.4512 19.5Z" fill="rgb(66, 72, 84)"/>
</svg>