<svg xmlns="http://www.w3.org/2000/svg" width="25" height="24" viewBox="0 0 25 24" fill="none">
  <path d="M23.481 7.28056L20.6779 10.0837C20.1116 16.6481 14.5757 21.7499 7.95036 21.7499C6.58911 21.7499 5.46693 21.5343 4.61474 21.1087C3.92755 20.7646 3.6463 20.3962 3.57599 20.2912C3.51329 20.1972 3.47266 20.0902 3.45711 19.9782C3.44157 19.8663 3.45153 19.7523 3.48623 19.6448C3.52094 19.5372 3.5795 19.4389 3.65755 19.3572C3.73559 19.2754 3.8311 19.2124 3.93693 19.1727C3.9613 19.1634 6.20943 18.2999 7.63724 16.6565C6.84541 16.0055 6.15419 15.241 5.58599 14.3877C4.42349 12.6618 3.12224 9.66369 3.52349 5.18337C3.53621 5.04101 3.58934 4.90525 3.67663 4.79207C3.76392 4.67889 3.88174 4.59301 4.0162 4.54454C4.15066 4.49608 4.29617 4.48704 4.4356 4.51851C4.57502 4.54997 4.70256 4.62061 4.80318 4.72212C4.83599 4.75494 7.92318 7.82525 11.6976 8.82087V8.24994C11.6961 7.65124 11.8145 7.05831 12.0457 6.50606C12.2769 5.95381 12.6163 5.45341 13.0438 5.03431C13.459 4.61968 13.9531 4.29241 14.4968 4.07182C15.0406 3.85123 15.623 3.74178 16.2097 3.74994C16.9968 3.7577 17.7685 3.96899 18.4498 4.36325C19.131 4.75752 19.6987 5.32135 20.0976 5.99994H22.9504C23.0988 5.99982 23.2439 6.04374 23.3674 6.12615C23.4908 6.20855 23.587 6.32573 23.6438 6.46284C23.7006 6.59996 23.7155 6.75085 23.6865 6.89642C23.6575 7.04198 23.586 7.17567 23.481 7.28056Z" fill="rgb(66, 72, 84)"/>
</svg>