<svg xmlns="http://www.w3.org/2000/svg" width="25" height="24" viewBox="0 0 25 24" fill="none">
    <path d="M22.4196 6.5175C22.3313 6.17189 22.162 5.85224 21.9258 5.58491C21.6896 5.31758 21.3933 5.11024 21.0612 4.98C17.8474 3.73875 12.7324 3.75 12.4512 3.75C12.1699 3.75 7.05492 3.73875 3.84117 4.98C3.50907 5.11024 3.2127 5.31758 2.97651 5.58491C2.74032 5.85224 2.57107 6.17189 2.48273 6.5175C2.23992 7.45313 1.95117 9.16313 1.95117 12C1.95117 14.8369 2.23992 16.5469 2.48273 17.4825C2.57094 17.8283 2.74013 18.1481 2.97633 18.4156C3.21253 18.6831 3.50897 18.8906 3.84117 19.0209C6.91992 20.2088 11.7387 20.25 12.3893 20.25H12.513C13.1637 20.25 17.9852 20.2088 21.0612 19.0209C21.3934 18.8906 21.6898 18.6831 21.926 18.4156C22.1622 18.1481 22.3314 17.8283 22.4196 17.4825C22.6624 16.545 22.9512 14.8369 22.9512 12C22.9512 9.16313 22.6624 7.45313 22.4196 6.5175ZM15.6593 12.3122L11.1593 15.3122C11.1028 15.3499 11.0371 15.3715 10.9693 15.3748C10.9015 15.3781 10.834 15.3629 10.7742 15.3309C10.7143 15.2988 10.6643 15.2511 10.6294 15.1928C10.5945 15.1346 10.5761 15.0679 10.5762 15V9C10.5761 8.9321 10.5945 8.86545 10.6294 8.80718C10.6643 8.74892 10.7143 8.70121 10.7742 8.66916C10.834 8.63711 10.9015 8.62191 10.9693 8.6252C11.0371 8.62849 11.1028 8.65013 11.1593 8.68782L15.6593 11.6878C15.7107 11.722 15.7529 11.7685 15.7821 11.8229C15.8113 11.8774 15.8265 11.9382 15.8265 12C15.8265 12.0618 15.8113 12.1226 15.7821 12.1771C15.7529 12.2315 15.7107 12.278 15.6593 12.3122Z" fill="rgb(66, 72, 84)"/>
</svg>