<svg xmlns="http://www.w3.org/2000/svg" width="24" height="24" viewBox="0 0 24 24" fill="none">
  <g clip-path="url(#clip0_7_29411)">
    <path d="M23 7.3621e-07C21.7916 -0.0190471 20.6065 0.333467 19.6049 1.00987C18.6034 1.68628 17.8337 2.65394 17.4 3.782C15.6397 3.29692 13.8256 3.0342 12 3C10.1744 3.03429 8.36034 3.297 6.60002 3.782C6.16632 2.65394 5.39665 1.68628 4.3951 1.00987C3.39355 0.333467 2.20844 -0.0190471 1.00002 7.3621e-07H2.34315e-05V11.929C-0.00218665 12.7171 0.151967 13.4979 0.453559 14.226C0.755151 14.9542 1.19819 15.6153 1.75702 16.171L8.70702 23.121C8.98493 23.4007 9.3156 23.6224 9.67987 23.7733C10.0441 23.9242 10.4347 24.0013 10.829 24H13.172C13.5661 24.0011 13.9566 23.924 14.3206 23.7731C14.6847 23.6222 15.0152 23.4006 15.293 23.121L22.242 16.172C22.8012 15.6163 23.2445 14.955 23.5463 14.2267C23.8481 13.4984 24.0023 12.7174 24 11.929V7.3621e-07H23ZM9.00002 20.586L3.17102 14.757C2.79859 14.3864 2.50333 13.9457 2.30233 13.4603C2.10133 12.9748 1.99858 12.4544 2.00002 11.929V10.215C2.6878 10.3926 3.35739 10.6343 4.00002 10.937C4.17088 11.7799 4.62206 12.5402 5.2801 13.094C5.93815 13.6478 6.76429 13.9626 7.62402 13.987C8.5704 15.4843 9.04943 17.2294 9.00002 19V20.586ZM22 11.929C22.0016 12.4545 21.8988 12.9751 21.6976 13.4605C21.4965 13.946 21.2009 14.3867 20.828 14.757L15 20.586V19C14.9506 17.2294 15.4296 15.4843 16.376 13.987C17.2358 13.9626 18.0619 13.6478 18.7199 13.094C19.378 12.5402 19.8292 11.7799 20 10.937C20.6427 10.6343 21.3123 10.3926 22 10.215V11.929ZM22 8.173C19.569 8.732 13 10.988 13 19V20H11V19C11 10.987 4.43102 8.732 2.00002 8.173V2.109C2.75029 2.31917 3.42985 2.72811 3.96689 3.29261C4.50392 3.85711 4.8785 4.5562 5.05102 5.316L5.36802 6.264L6.31502 5.949C8.15718 5.37194 10.0703 5.05258 12 5C13.9297 5.0527 15.8428 5.37206 17.685 5.949L18.633 6.264L18.948 5.316C19.1209 4.55621 19.4958 3.8572 20.0329 3.29273C20.5701 2.72827 21.2497 2.31931 22 2.109V8.173Z" fill="#E7C009"/>
  </g>
  <defs>
    <clipPath id="clip0_7_29411">
      <rect width="24" height="24" fill="white"/>
    </clipPath>
  </defs>
</svg>