<svg width="24" height="25" viewBox="0 0 24 25" fill="none" xmlns="http://www.w3.org/2000/svg">
<g id="fi-sr-graduation-cap">
<path id="Vector" d="M23.9999 8.98018V20.5002C23.9999 20.7654 23.8946 21.0198 23.707 21.2073C23.5195 21.3948 23.2651 21.5002 22.9999 21.5002C22.7347 21.5002 22.4803 21.3948 22.2928 21.2073C22.1053 21.0198 21.9999 20.7654 21.9999 20.5002V12.2522L14.5999 15.7882C13.8197 16.2487 12.9289 16.4886 12.0229 16.4822C11.0728 16.4837 10.1399 16.2283 9.32291 15.7432L1.94291 12.2302C1.36279 11.9182 0.876721 11.4567 0.535132 10.8935C0.193543 10.3304 0.00888329 9.68603 0.000312565 9.02741C-0.00825816 8.36879 0.159573 7.71988 0.486391 7.148C0.813209 6.57613 1.28711 6.10212 1.85891 5.77518C1.88591 5.75918 1.91491 5.74418 1.94291 5.73018L9.39991 2.17218C10.205 1.70984 11.1187 1.47031 12.047 1.47822C12.9754 1.48613 13.8848 1.74119 14.6819 2.21718L22.0569 5.73018C22.6388 6.05216 23.1252 6.52247 23.4664 7.09331C23.8077 7.66414 23.9918 8.31516 23.9999 8.98018ZM12.0219 18.4802C10.7425 18.483 9.48504 18.1477 8.37691 17.5082L3.99991 15.4192V18.1192C4.00051 19.1867 4.34228 20.2261 4.97534 21.0856C5.6084 21.9452 6.49962 22.5799 7.51891 22.8972C8.97524 23.3153 10.4849 23.5185 11.9999 23.5002C13.5152 23.5172 15.0248 23.3127 16.4809 22.8932C17.5002 22.5759 18.3914 21.9412 19.0245 21.0816C19.6575 20.2221 19.9993 19.1827 19.9999 18.1152V15.4242L15.5409 17.5542C14.4706 18.1691 13.2563 18.4893 12.0219 18.4822V18.4802Z" fill="#EF476F"/>
</g>
</svg>
